<svg xmlns="http://www.w3.org/2000/svg" width="1200" height="540" viewBox="0 0 1200 540">
<defs>
<linearGradient id="g" x1="0" x2="1" y1="0" y2="1"><stop offset="0" stop-color="#fff8ed"/><stop offset=".52" stop-color="#f0d39a"/><stop offset="1" stop-color="#061a2f"/></linearGradient>
<radialGradient id="r" cx="72%" cy="30%" r="55%"><stop offset="0" stop-color="#ffffff" stop-opacity=".85"/><stop offset=".55" stop-color="#f2cf71" stop-opacity=".25"/><stop offset="1" stop-color="#061a2f" stop-opacity=".05"/></radialGradient>
<filter id="s" x="-20%" y="-20%" width="140%" height="140%"><feDropShadow dx="0" dy="18" stdDeviation="20" flood-color="#061a2f" flood-opacity=".25"/></filter>
</defs>
<rect width="1200" height="540" fill="url(#g)"/>
<rect width="1200" height="540" fill="url(#r)"/>
<circle cx="930" cy="190" r="170" fill="#ffffff" opacity=".28"/>
<circle cx="1020" cy="100" r="70" fill="#f2cf71" opacity=".32"/>
<path d="M0 390 C210 330 360 430 570 374 C820 306 960 312 1200 250 L1200 540 L0 540 Z" fill="#061a2f" opacity=".92"/>
<path d="M0 420 C230 350 400 462 610 410 C840 354 1010 366 1200 302" fill="none" stroke="#f2cf71" stroke-width="9" opacity=".8"/>
<g filter="url(#s)">
<rect x="760" y="120" width="260" height="190" rx="34" fill="#ffffff" opacity=".9"/>
<text x="890" y="235" font-family="Arial, sans-serif" font-size="92" text-anchor="middle">🏠</text>
</g>
<text x="78" y="115" font-family="Arial, sans-serif" font-size="42" font-weight="900" fill="#061a2f" letter-spacing="3">AIRBNB</text>
<text x="80" y="160" font-family="Georgia, serif" font-size="30" font-style="italic" fill="#7a5a24">Curățenie premium</text>
</svg>